<?xml version="1.0" encoding="iso-8859-1"?>
<!-- Generator: Adobe Illustrator 19.2.1, SVG Export Plug-In . SVG Version: 6.00 Build 0)  -->
<svg version="1.1" id="Icon" xmlns="http://www.w3.org/2000/svg" xmlns:xlink="http://www.w3.org/1999/xlink" x="0px" y="0px"
	 viewBox="0 0 288 288" style="enable-background:new 0 0 288 288;" xml:space="preserve">
<style type="text/css">
	.st0{fill:none;}
	.st1{fill:#D4EFF4;}
	.st2{fill:#BDE6EE;}
</style>
<g>
	<rect class="st0" width="288" height="288"/>
	<path class="st1" d="M205.5,129c-1.04,0-2.07,0.05-3.08,0.14c-4.4-13.99-17.47-24.14-32.92-24.14c-3.98,0-7.8,0.67-11.35,1.91
		C151.11,96.7,139.34,90,126,90c-18.45,0-33.9,12.81-37.96,30.01C87.7,120,87.35,120,87,120c-21.54,0-39,17.46-39,39
		c0,21.54,17.46,39,39,39h118.5c19.05,0,34.5-15.45,34.5-34.5S224.55,129,205.5,129z"/>
	<path class="st2" d="M205.5,129c-1.04,0-2.07,0.05-3.08,0.14c-4.4-13.99-17.47-24.14-32.92-24.14c-7.68,0-14.77,2.51-20.5,6.75
		c-5.55-4.23-12.48-6.75-20-6.75c-16.24,0-29.74,11.73-32.49,27.19C95.36,132.06,94.19,132,93,132c-18.23,0-33,14.77-33,33
		s14.77,33,33,33h112.5c19.05,0,34.5-15.45,34.5-34.5S224.55,129,205.5,129z"/>
</g>
</svg>
